<svg width="25" height="24" viewBox="0 0 25 24" fill="none" xmlns="http://www.w3.org/2000/svg">
<path d="M24.1304 21.646L17.8756 15.441C19.052 13.836 19.7475 11.862 19.7475 9.73C19.7475 4.365 15.3475 0 9.93843 0C4.53039 0 0.130371 4.365 0.130371 9.73C0.130371 15.096 4.53039 19.46 9.93843 19.46C11.9887 19.46 13.8929 18.833 15.4694 17.762L21.7575 24L24.1304 21.646V21.646ZM3.00727 9.73C3.00727 5.938 6.11701 2.853 9.93943 2.853C13.7619 2.853 16.8716 5.938 16.8716 9.73C16.8716 13.522 13.7619 16.607 9.93943 16.607C6.11601 16.607 3.00727 13.522 3.00727 9.73V9.73Z" fill="#2B2A28"/>
</svg>
