<svg viewBox="-72.928 -20.843 301.511 83.431" width="301.511" height="83.431" xmlns="http://www.w3.org/2000/svg">
  <defs></defs>
  <g transform="matrix(1, 0, 0, 1, -1.331601, 0)">
    <g transform="matrix(0.346764, 0, 0, 0.346764, -98.955841, -160.173218)">
      <rect x="181.4" y="563.3" transform="matrix(6.123234e-17 -1 1 6.123234e-17 -396.0103 821.9637)" width="63.2" height="91.3"></rect>
      <path d="M167.4,401.8c0.2,0,30.1,0,30.2,0c0.7,0,60.3,0,61,0c0,54.5,0,109,0,163.5h-91.2c0-27.8-22.5-50.3-50.3-50.3v-67.7v-0.1 C117.1,422.1,139.6,401.8,167.4,401.8"></path>
      <circle cx="117.1" cy="565.3" r="38.2"></circle>
      <rect x="135.5" y="565.3" width="19.7" height="75.3"></rect>
    </g>
    <g transform="matrix(0.346764, 0, 0, 0.346764, -98.955841, -160.173218)">
      <path d="M323.1,505.2l0.3,0.1c0.7-0.3,1.4-0.5,2.1-0.6c0.7-0.2,1.6-0.3,2.5-0.3c2.6,0,4.8,0.8,6.8,2.5c2,1.7,3,4,3,7.1 c0,2-0.4,3.7-1.3,5.1c-0.9,1.4-2,2.6-3.5,3.5s-3,1.6-4.7,2c-1.7,0.4-3.5,0.6-5.2,0.6c-4.4,0-8.6-1-12.4-3.1l2-4.6 c2.9,1.5,6,2.3,9.5,2.3c1.9,0,3.7-0.4,5.4-1.3c1.7-0.9,2.6-2.3,2.6-4.5c0-0.3-0.1-0.8-0.3-1.4c-0.2-0.6-0.5-1.2-0.9-1.7 c-0.4-0.6-1.1-1-1.9-1.4c-0.9-0.4-1.9-0.6-3.2-0.6c-1.2,0-2.3,0.1-3.2,0.4c-0.9,0.3-1.8,0.6-2.7,1l-2.3-2.2l6.6-9.1 c-3.8-0.5-7.5-1.5-11.1-2.9c-5.7-2.4-10.7-5.7-14.9-9.9s-7.5-9.2-9.9-15c-2.4-5.8-3.6-12.1-3.6-19s1.2-13.3,3.6-19 c2.4-5.8,5.7-10.8,9.9-15s9.2-7.5,15-9.9c5.8-2.4,12-3.6,18.7-3.6c5.6,0,11.2,1.1,16.9,3.3c5.6,2.2,10.4,5.9,14.4,11l-8.1,6 c-0.9-1.4-2.2-2.9-3.8-4.3c-1.6-1.4-3.5-2.7-5.6-3.8c-2.1-1.1-4.3-2-6.7-2.7c-2.4-0.7-4.8-1-7.2-1c-5.8,0-11,1.1-15.6,3.2 c-4.6,2.1-8.5,5-11.7,8.6c-3.2,3.6-5.6,7.7-7.4,12.4c-1.7,4.7-2.6,9.7-2.6,14.9c0,5.2,0.9,10.1,2.6,14.9c1.7,4.7,4.2,8.9,7.4,12.4 c3.2,3.6,7.1,6.4,11.7,8.6c4.6,2.1,9.8,3.2,15.6,3.2c2.4,0,4.8-0.2,7.1-0.6c2.3-0.4,4.6-1.1,6.9-2.2c2.3-1,4.4-2.4,6.4-4.1 c2-1.7,3.9-3.9,5.6-6.5l7.5,5.4c-1.5,2.3-3.4,4.5-5.7,6.5c-2.3,2-4.8,3.8-7.7,5.3c-2.9,1.5-6,2.7-9.4,3.5 c-3.4,0.9-6.9,1.3-10.7,1.3c-0.9,0-1.9,0-2.8-0.1L323.1,505.2z"></path>
      <path d="M385.7,497.6H375l39.4-90.5h8.9l39.4,90.5h-10.7l-10-23.8h-46.3L385.7,497.6z M399.1,465.4h39.2l-19.6-47.6L399.1,465.4z"></path>
      <path d="M492.5,489.1h42.2v8.4h-51.4v-90.5h9.2V489.1z"></path>
      <path d="M564.7,497.6h-9.2v-90.5h9.2V497.6z"></path>
      <path d="M619.4,505.2l0.3,0.1c0.7-0.3,1.4-0.5,2.1-0.6c0.7-0.2,1.6-0.3,2.5-0.3c2.6,0,4.8,0.8,6.8,2.5c2,1.7,3,4,3,7.1 c0,2-0.4,3.7-1.3,5.1c-0.9,1.4-2,2.6-3.5,3.5s-3,1.6-4.7,2c-1.7,0.4-3.5,0.6-5.2,0.6c-4.4,0-8.6-1-12.4-3.1l2-4.6 c2.9,1.5,6,2.3,9.5,2.3c1.9,0,3.7-0.4,5.4-1.3c1.7-0.9,2.6-2.3,2.6-4.5c0-0.3-0.1-0.8-0.3-1.4c-0.2-0.6-0.5-1.2-0.9-1.7 c-0.4-0.6-1.1-1-1.9-1.4c-0.9-0.4-1.9-0.6-3.2-0.6c-1.2,0-2.3,0.1-3.2,0.4c-0.9,0.3-1.8,0.6-2.7,1l-2.3-2.2l6.3-8.6 c-4.9-0.2-9.5-1.2-13.9-2.9c-4.9-2.1-9.2-5.6-12.7-10.4l8.3-6c2,3.3,4.7,6,8.2,8c3.5,2,7.6,3,12.4,3c2.3,0,4.6-0.4,6.9-1.1 c2.3-0.7,4.4-1.8,6.2-3.2c1.8-1.4,3.3-3.1,4.5-5.2c1.2-2,1.8-4.4,1.8-7c0-3.2-0.7-5.8-2-7.9c-1.3-2.1-3.1-3.8-5.2-5.2 c-2.2-1.4-4.6-2.6-7.4-3.5c-2.8-0.9-5.6-1.9-8.6-2.8c-2.9-0.9-5.8-2-8.6-3.2c-2.8-1.2-5.2-2.7-7.4-4.5c-2.2-1.8-3.9-4.1-5.2-6.9 c-1.3-2.8-2-6.2-2-10.4c0-4.3,0.8-8.1,2.5-11.4c1.7-3.2,3.9-5.9,6.6-8.1c2.8-2.1,5.9-3.7,9.4-4.7c3.5-1,7.1-1.5,10.7-1.5 c5.1,0,9.8,0.8,13.9,2.4c4.2,1.6,8.1,4.5,11.6,8.6l-8.1,6.3c-4-5.9-9.8-8.8-17.5-8.8c-2.4,0-4.7,0.3-7,1c-2.3,0.6-4.4,1.6-6.2,2.9 c-1.8,1.3-3.3,3-4.4,5.1c-1.1,2.1-1.7,4.5-1.7,7.4c0,4.1,1.2,7.3,3.5,9.5c2.3,2.3,5.2,4.1,8.6,5.6c3.4,1.5,7.1,2.7,11.2,3.9 c4,1.2,7.8,2.7,11.2,4.6c3.4,1.9,6.3,4.5,8.6,7.6c2.3,3.2,3.5,7.5,3.5,12.9c0,4.1-0.9,7.8-2.6,11.1c-1.7,3.3-4,6-6.9,8.2 c-2.9,2.2-6.1,3.9-9.7,5.1c-2.4,0.8-4.8,1.3-7.3,1.5L619.4,505.2z"></path>
      <path d="M686.1,446.3h0.1h1.2l42.6-39.2h13.2l-45.6,41l48.2,49.5h-13.6l-44.5-46.7h-1.4h-0.1v46.7h-9.2v-90.5h9.2V446.3z"></path>
      <path d="M764.2,497.6h-10.7l39.4-90.5h8.9l39.4,90.5h-10.7l-10-23.8h-46.3L764.2,497.6z M777.7,465.4h39.2l-19.6-47.6L777.7,465.4 z"></path>
      <path d="M927.2,483.8h0.3v-76.7h9.2v90.5h-11.5l-53.9-77.5H871v77.5h-9.2v-90.5h11.5L927.2,483.8z"></path>
      <path d="M285.9,549.6H316l20.8,59.1h0.3l21-59.1h30v90.5h-19.9v-69.4H368l-23.8,69.4H329l-22.9-69.4h-0.3v69.4h-19.9V549.6z"></path>
      <path d="M418.6,594.9c0-7.2,1.2-13.8,3.6-19.7c2.4-5.9,5.8-10.9,10.2-15c4.3-4.1,9.5-7.3,15.5-9.5c6-2.2,12.5-3.3,19.6-3.3 c7.1,0,13.6,1.1,19.6,3.3c6,2.2,11.1,5.4,15.5,9.5c4.3,4.1,7.7,9.1,10.2,15c2.4,5.9,3.6,12.4,3.6,19.7c0,7.2-1.2,13.8-3.6,19.7 c-2.4,5.9-5.8,10.9-10.2,15c-4.3,4.1-9.5,7.3-15.5,9.5c-6,2.2-12.5,3.3-19.6,3.3c-7.1,0-13.6-1.1-19.6-3.3 c-6-2.2-11.1-5.4-15.5-9.5c-4.3-4.1-7.7-9.1-10.2-15C419.8,608.7,418.6,602.1,418.6,594.9z M439.3,594.9c0,4.3,0.7,8.2,2,11.7 c1.3,3.5,3.2,6.6,5.7,9.2c2.5,2.6,5.4,4.6,8.9,6.1c3.5,1.5,7.3,2.2,11.6,2.2c4.3,0,8.1-0.7,11.6-2.2c3.5-1.4,6.4-3.5,8.9-6.1 c2.5-2.6,4.4-5.7,5.7-9.2c1.3-3.5,2-7.4,2-11.7c0-4.2-0.7-8.1-2-11.6c-1.3-3.6-3.2-6.7-5.7-9.3c-2.5-2.6-5.4-4.6-8.9-6.1 c-3.5-1.4-7.3-2.2-11.6-2.2c-4.3,0-8.1,0.7-11.6,2.2c-3.5,1.5-6.4,3.5-8.9,6.1c-2.5,2.6-4.4,5.7-5.7,9.3 C439.9,586.8,439.3,590.7,439.3,594.9z"></path>
      <path d="M546.7,549.6h33.8c3.9,0,7.9,0.3,11.8,0.8c4,0.6,7.5,1.7,10.7,3.3c3.2,1.7,5.7,4,7.7,7c2,3,2.9,6.9,2.9,11.9 c0,5.1-1.4,9.4-4.3,12.7c-2.9,3.4-6.6,5.8-11.3,7.2v0.3c3,0.4,5.7,1.3,8.1,2.5c2.4,1.2,4.5,2.8,6.3,4.7c1.7,1.9,3.1,4.2,4,6.7 c0.9,2.6,1.4,5.3,1.4,8.2c0,4.8-1,8.8-3.1,12c-2,3.2-4.7,5.8-7.9,7.7c-3.2,2-6.9,3.4-10.9,4.2c-4,0.9-8.1,1.3-12.1,1.3h-37.1 V549.6z M566.6,585.8h14.4c1.5,0,3-0.2,4.5-0.5c1.5-0.3,2.8-0.9,4-1.7c1.2-0.8,2.2-1.8,2.9-3.1c0.7-1.3,1.1-2.8,1.1-4.6 c0-1.9-0.4-3.4-1.2-4.7c-0.8-1.2-1.9-2.2-3.1-2.9c-1.3-0.7-2.7-1.2-4.3-1.5c-1.6-0.3-3.2-0.4-4.7-0.4h-13.6V585.8z M566.6,623.3 h17.9c1.5,0,3.1-0.2,4.7-0.5c1.6-0.3,3-0.9,4.3-1.8c1.3-0.9,2.3-2,3.1-3.3c0.8-1.4,1.2-3,1.2-5c0-2.1-0.5-3.9-1.6-5.2 c-1.1-1.3-2.4-2.3-4-3c-1.6-0.7-3.4-1.2-5.2-1.4c-1.9-0.3-3.6-0.4-5.2-0.4h-15.1V623.3z"></path>
      <path d="M656.7,543.7c-1.5,0-2.9-0.3-4.2-0.9c-1.3-0.6-2.4-1.4-3.3-2.4c-0.9-1-1.7-2.2-2.2-3.5c-0.6-1.3-0.8-2.7-0.8-4.2 c0-1.4,0.3-2.7,0.8-4c0.6-1.3,1.3-2.4,2.2-3.3c0.9-0.9,2-1.7,3.3-2.3c1.2-0.6,2.6-0.9,4-0.9c3,0,5.6,1,7.8,2.9 c2.2,2,3.3,4.5,3.3,7.5c0,3.1-1,5.7-3.1,7.8C662.5,542.7,659.9,543.7,656.7,543.7z M646.1,549.6h19.9v90.5h-19.9V549.6z"></path>
      <path d="M701.9,549.6h19.9v72.1h36.9v18.4h-56.9V549.6z"></path>
      <path d="M794.7,601.5l-34-51.9h24.8l19.2,33.9l20.3-33.9h23.7l-34,51.9v38.6h-19.9V601.5z"></path>
      <path d="M892.5,549.6H909l39.4,90.5h-22.5L918,621h-35.2l-7.5,19.2h-22L892.5,549.6z M900.1,576l-11,28.1h22.1L900.1,576z"></path>
    </g>
  </g>
</svg>