<svg width="25" height="24" viewBox="0 0 25 24" fill="none" xmlns="http://www.w3.org/2000/svg">
<g clip-path="url(#clip0_12_13)">
<path d="M24.0766 21.646L17.8358 15.441C19.0095 13.836 19.7035 11.862 19.7035 9.73C19.7035 4.365 15.3134 0 9.91643 0C4.52052 0 0.130371 4.365 0.130371 9.73C0.130371 15.096 4.52052 19.46 9.91643 19.46C11.9622 19.46 13.862 18.833 15.435 17.762L21.709 24L24.0766 21.646V21.646ZM3.00082 9.73C3.00082 5.938 6.10359 2.853 9.91744 2.853C13.7313 2.853 16.8341 5.938 16.8341 9.73C16.8341 13.522 13.7313 16.607 9.91744 16.607C6.10258 16.607 3.00082 13.522 3.00082 9.73V9.73Z" fill="#2B2A28"/>
</g>
<defs>
<clipPath id="clip0_12_13">
<rect width="24.1383" height="24" fill="white" transform="translate(0.130371)"/>
</clipPath>
</defs>
</svg>
